<?xml version="1.0" standalone="no"?>
<!DOCTYPE svg PUBLIC "-//W3C//DTD SVG 20010904//EN"
 "http://www.w3.org/TR/2001/REC-SVG-20010904/DTD/svg10.dtd">
<svg version="1.0" xmlns="http://www.w3.org/2000/svg"
 width="375.000000pt" height="389.000000pt" viewBox="0 0 375.000000 389.000000"
 preserveAspectRatio="xMidYMid meet">

<g transform="translate(0.000000,389.000000) scale(0.100000,-0.100000)"
fill="#000000" stroke="none">
<path d="M1556 3871 l-40 -6 41 -27 c49 -32 84 -86 86 -133 1 -19 5 -35 9 -35
3 0 30 37 59 83 29 45 59 92 67 105 l14 22 -98 -1 c-55 -1 -117 -5 -138 -8z"/>
<path d="M1889 3845 c103 -94 97 -180 -21 -307 -24 -27 -51 -48 -59 -48 -8 0
-50 29 -94 65 -44 35 -82 65 -85 65 -3 0 -13 -12 -22 -27 -35 -60 -89 -113
-114 -113 -30 0 -174 108 -174 130 0 8 34 66 75 129 42 62 74 115 72 117 -7 7
-170 -27 -207 -42 -139 -59 -182 -248 -83 -364 73 -85 143 -101 286 -66 165
40 265 49 447 43 247 -8 408 -49 635 -162 310 -154 546 -388 704 -695 137
-266 190 -508 178 -804 -7 -167 -29 -290 -77 -441 -181 -563 -652 -984 -1250
-1116 -149 -33 -455 -38 -617 -10 -712 121 -1259 655 -1414 1382 -19 87 -23
137 -23 309 -1 113 3 232 7 265 5 33 6 57 3 54 -17 -17 -39 -228 -39 -379 0
-781 499 -1473 1240 -1720 398 -132 789 -132 1188 1 697 232 1188 842 1280
1589 19 156 19 271 0 432 -54 460 -259 878 -586 1193 -329 317 -750 508 -1213
550 l-79 8 42 -38z"/>
<path d="M1632 2884 c-47 -57 -123 -214 -129 -265 -5 -42 -2 -48 27 -72 26
-23 41 -27 90 -27 49 0 61 -4 74 -22 32 -46 21 -94 -64 -266 -43 -89 -90 -172
-104 -185 -48 -43 -85 -195 -66 -266 15 -55 55 -85 156 -116 106 -32 136 -58
125 -107 -25 -110 -144 -233 -303 -311 -102 -51 -198 -70 -320 -64 -84 3 -106
8 -163 36 -214 106 -208 348 20 839 58 125 70 162 46 136 -17 -17 -123 -218
-167 -315 -122 -273 -184 -557 -155 -713 36 -194 152 -295 347 -304 115 -5
184 9 286 60 92 46 205 146 273 243 120 169 205 428 205 624 0 94 -18 129 -81
155 -123 53 -149 66 -149 75 0 6 4 11 10 11 5 0 22 24 36 53 15 28 51 94 81
145 163 277 202 442 136 571 -32 62 -88 108 -144 117 -32 6 -39 2 -67 -32z"/>
<path d="M2271 2767 c-80 -199 -102 -301 -162 -762 -42 -327 -32 -481 38 -574
49 -64 151 -89 231 -55 47 19 80 51 152 144 84 110 100 122 170 132 74 10 109
27 169 83 25 23 57 46 71 50 74 22 135 107 170 237 27 100 16 120 -23 42 -41
-81 -54 -94 -97 -94 -32 0 -41 -5 -63 -39 -15 -22 -43 -52 -63 -67 -31 -24
-45 -28 -105 -28 l-68 -1 -53 -52 c-64 -63 -126 -92 -194 -93 -103 0 -168 44
-206 139 -20 50 -23 73 -22 201 1 134 29 409 68 665 15 95 9 126 -13 72z"/>
<path d="M61 2244 c0 -11 3 -14 6 -6 3 7 2 16 -1 19 -3 4 -6 -2 -5 -13z"/>
</g>
</svg>
